<?xml version="1.0" standalone="no"?>
<!DOCTYPE svg PUBLIC "-//W3C//DTD SVG 20010904//EN"
 "http://www.w3.org/TR/2001/REC-SVG-20010904/DTD/svg10.dtd">
<svg version="1.0" xmlns="http://www.w3.org/2000/svg"
 width="389.000000pt" height="212.000000pt" viewBox="0 0 389.000000 212.000000"
 preserveAspectRatio="xMidYMid meet">

<g transform="translate(0.000000,212.000000) scale(0.100000,-0.100000)"
fill="#000000" stroke="none">
<path d="M2678 1785 c-20 -58 -34 -105 -30 -105 4 0 14 15 21 33 l13 32 9 -32
10 -33 114 0 c63 0 115 1 115 3 0 1 -17 47 -38 102 l-38 100 -69 3 -70 3 -37
-106z"/>
<path d="M600 1860 c102 -13 139 -45 150 -130 l5 -45 122 -3 121 -3 7 51 c8
55 41 104 78 116 12 4 47 10 77 14 30 4 -96 7 -280 7 -184 0 -310 -3 -280 -7z"/>
<path d="M750 805 c0 -415 -1 -419 -63 -451 -17 -10 -57 -20 -87 -24 -30 -4
214 -8 542 -9 l597 -1 5 52 c3 29 7 133 10 231 5 183 -6 240 -18 95 -14 -164
-55 -267 -124 -313 -71 -46 -138 -56 -383 -53 l-224 3 -3 423 -2 422 -125 0
-125 0 0 -375z"/>
<path d="M2356 873 c-184 -522 -178 -512 -341 -526 -22 -2 82 -4 230 -4 197 0
242 2 168 7 -144 10 -181 38 -170 129 3 25 36 132 74 236 l68 190 295 0 295 0
67 -185 c74 -205 89 -261 81 -303 -8 -41 -45 -60 -132 -68 -42 -3 66 -6 239
-6 215 -1 302 2 275 8 -43 10 -79 39 -100 80 -8 14 -72 181 -144 370 -71 189
-132 352 -136 362 -6 15 -22 17 -126 17 -67 0 -119 -4 -119 -9 0 -5 18 -58 40
-118 22 -59 40 -114 40 -120 0 -10 -64 -13 -286 -13 -268 0 -286 1 -279 18 33
85 83 242 77 242 -5 0 -57 -138 -116 -307z"/>
</g>
</svg>
